<?xml version="1.0" encoding="UTF-8"?>
<!DOCTYPE svg PUBLIC "-//W3C//DTD SVG 1.1//EN" "http://www.w3.org/Graphics/SVG/1.1/DTD/svg11.dtd">
<!-- Creator: CorelDRAW 2020 (64-Bit) -->
<svg xmlns="http://www.w3.org/2000/svg" xml:space="preserve" width="40px" height="40px" version="1.1" style="shape-rendering:geometricPrecision; text-rendering:geometricPrecision; image-rendering:optimizeQuality; fill-rule:evenodd; clip-rule:evenodd"
viewBox="0 0 2260.91 2260.99"
 xmlns:xlink="http://www.w3.org/1999/xlink"
 xmlns:xodm="http://www.corel.com/coreldraw/odm/2003">
 <defs>
  <style type="text/css">
   <![CDATA[
    .fil2 {fill:#213242}
    .fil1 {fill:white}
    .fil0 {fill:#213242;fill-rule:nonzero}
   ]]>
  </style>
 </defs>
 <g id="Capa_x0020_1">
  <metadata id="CorelCorpID_0Corel-Layer"/>
  <g id="_2094729397040">
   <path class="fil0" d="M417.9 709.18c-26.85,1.22 -35.17,14.74 -34.38,34.37l0 279.29c-0.17,21.19 10.83,34.29 34.38,34.38l340.28 0.02 373.5 -0.02c14.63,0.28 25.73,18.35 20.68,31.56l-495.74 1140.68c-5.2,14.23 4.6,31.19 20.65,31.53l410.12 0c23.58,-0.54 39.68,-12.33 47.95,-31.61l520.4 -1213.7c8.95,-22.53 12.61,-38.72 13.58,-65.96l0 -206.17c0.31,-21.16 -9.77,-33.75 -34.38,-34.37l-1217.04 0z"/>
   <g>
    <path class="fil1" d="M1927.98 469.46l-152.87 150.51c58.07,60.77 106.77,129.04 146.65,204.35l170.8 -136.48c-42.02,-81.36 -94.49,-155.74 -164.58,-218.38z"/>
    <path class="fil1" d="M2133.89 777.13l-167.3 131.82c58.47,96.62 84.92,253.41 102.96,311.56l182.5 -51.48c-9.27,-63.4 -55.09,-328.09 -118.16,-391.9z"/>
    <path class="fil1" d="M2255.17 1275.11l-174.72 46.03c21.82,160.56 -8.15,270.42 -6.22,324.63l136.48 7.01c13.47,-63.69 67.76,-257.72 44.46,-377.67z"/>
    <path class="fil1" d="M2062.1 1741.51c-64.77,205.17 -232.87,447.35 -311.05,515.96l2.73 3.52c120.25,-62.5 335.08,-318.12 425.74,-509.57l-117.42 -9.91z"/>
   </g>
   <path class="fil2" d="M0 572.87c351.65,-518.24 1146.62,-856.62 1903.55,-244.55l7.22 14.86 -285.74 238.35c-334.63,-293.52 -933.55,-331.27 -1329.43,66.6l-295.6 -75.26z"/>
  </g>
 </g>
</svg>
