<?xml version="1.0" encoding="UTF-8"?>
<!DOCTYPE svg PUBLIC "-//W3C//DTD SVG 1.1//EN" "http://www.w3.org/Graphics/SVG/1.1/DTD/svg11.dtd">
<!-- Creator: CorelDRAW 2020 (64-Bit) -->
<svg xmlns="http://www.w3.org/2000/svg" xml:space="preserve" width="50px" height="50px" version="1.1" style="shape-rendering:geometricPrecision; text-rendering:geometricPrecision; image-rendering:optimizeQuality; fill-rule:evenodd; clip-rule:evenodd"
viewBox="0 0 2.2 2.2"
 xmlns:xlink="http://www.w3.org/1999/xlink"
 xmlns:xodm="http://www.corel.com/coreldraw/odm/2003">
 <defs>
  <style type="text/css">
   <![CDATA[
    .fil0 {fill:black}
   ]]>
  </style>
 </defs>
 <g id="Capa_x0020_1">
  <metadata id="CorelCorpID_0Corel-Layer"/>
  <path class="fil0" d="M1.34 0.24c0,0.04 -0.01,0.08 -0.03,0.11 -0.05,0.11 -0.42,0.41 -0.48,0.51 0.13,0 1.12,-0.01 1.18,0 0.12,0.03 0.18,0.13 0.19,0.23l0 0.02c-0.01,0.1 -0.07,0.19 -0.19,0.22 -0.06,0.02 -1.06,0.01 -1.18,0.01 0.05,0.08 0.44,0.41 0.48,0.5 0.05,0.1 0.04,0.2 -0.04,0.28 -0.09,0.1 -0.24,0.11 -0.36,-0.01 -0.11,-0.11 -0.84,-0.83 -0.87,-0.88 -0.04,-0.06 -0.04,-0.09 -0.04,-0.15 0,-0.12 0.13,-0.21 0.23,-0.31 0.09,-0.09 0.68,-0.7 0.75,-0.74 0.13,-0.07 0.27,-0.01 0.33,0.11 0.01,0.02 0.03,0.07 0.03,0.1z"/>
 </g>
</svg>
