<?xml version="1.0" encoding="UTF-8"?>
<!DOCTYPE svg PUBLIC "-//W3C//DTD SVG 1.1//EN" "http://www.w3.org/Graphics/SVG/1.1/DTD/svg11.dtd">
<!-- Creator: CorelDRAW 2020 (64-Bit) -->
<svg xmlns="http://www.w3.org/2000/svg" xml:space="preserve" width="50px" height="50px" version="1.1" style="shape-rendering:geometricPrecision; text-rendering:geometricPrecision; image-rendering:optimizeQuality; fill-rule:evenodd; clip-rule:evenodd"
viewBox="0 0 1.65 1.65"
 xmlns:xlink="http://www.w3.org/1999/xlink"
 xmlns:xodm="http://www.corel.com/coreldraw/odm/2003">
 <defs>
  <style type="text/css">
   <![CDATA[
    .fil0 {fill:none}
    .fil2 {fill:#EFEFEF}
    .fil1 {fill:white}
   ]]>
  </style>
 </defs>
 <g id="Capa_x0020_1">
  <metadata id="CorelCorpID_0Corel-Layer"/>
  <g id="_2436648916128">
   <rect class="fil0" width="1.65" height="1.65"/>
   <g>
    <path class="fil1" d="M0.98 1.61c0.01,-0.01 0.01,-0.01 0.01,-0.03l0.08 -0.14 -0.1 -0.34c-0.01,-0.03 -0.01,-0.01 -0.01,-0.1 0,-0.04 0.01,-0.09 -0.03,-0.12 -0.01,-0.01 -0.03,-0.01 -0.04,-0.02l0 -0.42c0,-0.05 0.1,-0.13 0.13,-0.17 0.03,-0.05 0.05,-0.11 0.02,-0.17 -0.02,-0.03 -0.04,-0.05 -0.07,-0.07 -0.02,0 -0.04,-0.01 -0.06,-0.01 -0.03,-0.01 -0.09,0 -0.13,0 -0.04,0 -0.08,0 -0.11,0.01 -0.01,0.01 -0.03,0.02 -0.03,0.04 0,0.02 0.02,0.02 0.04,0.02 0.08,0 0.17,0 0.22,0.04 0.01,0 0.02,0.02 0.03,0.04 0,0.02 -0.02,0.03 -0.03,0.04 -0.04,0.04 -0.1,0.1 -0.13,0.17 -0.01,0.03 -0.01,0.07 -0.01,0.1l0 0.38c-0.02,0.01 -0.03,0.01 -0.05,0.02 -0.02,0.02 -0.03,0.05 -0.03,0.07 0,0.02 0,0.03 0,0.04 0,0.05 0.01,0.07 0,0.11l-0.1 0.34 0.06 0.12c0,0.02 -0.01,0.05 0.01,0.05l0.33 0z"/>
    <path class="fil2" d="M0.58 1.44l0.49 0 0 0.17c0,0.01 -0.01,0.02 -0.02,0.02l-0.45 0c-0.01,0 -0.02,-0.01 -0.02,-0.02l0 -0.17z"/>
   </g>
  </g>
 </g>
</svg>
