<?xml version="1.0" encoding="UTF-8"?>
<!DOCTYPE svg PUBLIC "-//W3C//DTD SVG 1.1//EN" "http://www.w3.org/Graphics/SVG/1.1/DTD/svg11.dtd">
<!-- Creator: CorelDRAW 2020 (64-Bit) -->
<svg xmlns="http://www.w3.org/2000/svg" xml:space="preserve" width="50px" height="50px" version="1.1" style="shape-rendering:geometricPrecision; text-rendering:geometricPrecision; image-rendering:optimizeQuality; fill-rule:evenodd; clip-rule:evenodd"
viewBox="0 0 0.95 0.95"
 xmlns:xlink="http://www.w3.org/1999/xlink"
 xmlns:xodm="http://www.corel.com/coreldraw/odm/2003">
 <defs>
  <style type="text/css">
   <![CDATA[
    .fil0 {fill:#904DB4}
   ]]>
  </style>
 </defs>
 <g id="Capa_x0020_1">
  <metadata id="CorelCorpID_0Corel-Layer"/>
  <path class="fil0" d="M0.39 0.07l0 0.32 -0.32 0c-0.04,0 -0.07,0.03 -0.07,0.06l0 0.05c0,0.02 0.01,0.03 0.02,0.04 0.01,0.01 0.03,0.02 0.05,0.02l0.32 0 0 0.32c0,0.04 0.03,0.07 0.06,0.07l0.05 0c0.02,0 0.03,-0.01 0.04,-0.02 0.01,-0.01 0.02,-0.03 0.02,-0.05l0 -0.32 0.32 0c0.04,0 0.07,-0.03 0.07,-0.06l0 -0.05c0,-0.02 -0.01,-0.03 -0.02,-0.05 -0.01,-0.01 -0.03,-0.01 -0.05,-0.01l-0.32 0 0 -0.32c0,-0.02 -0.01,-0.04 -0.02,-0.05 -0.01,-0.01 -0.02,-0.02 -0.04,-0.02l-0.05 0c-0.03,0 -0.06,0.03 -0.06,0.07z"/>
 </g>
</svg>
